<?xml version="1.0" standalone="no"?>
<!DOCTYPE svg PUBLIC "-//W3C//DTD SVG 20010904//EN"
 "http://www.w3.org/TR/2001/REC-SVG-20010904/DTD/svg10.dtd">
<svg version="1.0" xmlns="http://www.w3.org/2000/svg"
 width="1024.000000pt" height="1024.000000pt" viewBox="0 0 1024.000000 1024.000000"
 preserveAspectRatio="xMidYMid meet">

<g transform="translate(0.000000,1024.000000) scale(0.100000,-0.100000)"
fill="#000000" stroke="none">
<path d="M1429 6466 c-25 -6 -65 -24 -90 -38 -59 -35 -151 -132 -182 -194 -57
-112 -57 -118 -57 -790 0 -705 0 -707 83 -911 106 -265 338 -513 584 -625 221
-100 279 -108 809 -108 251 0 435 4 438 9 8 13 92 248 123 345 14 44 27 86 30
93 4 11 -86 13 -505 13 -583 0 -612 3 -752 71 -67 33 -102 59 -165 123 l-80
81 502 5 c276 3 503 7 506 10 3 3 32 86 66 185 l61 180 364 3 364 2 79 -235
78 -235 110 0 c60 -1 159 -1 220 -2 66 0 110 3 112 9 2 6 -35 129 -83 274 -47
145 -141 435 -209 644 -68 209 -177 542 -242 740 l-119 360 -285 3 -285 2 -36
-107 c-84 -248 -281 -824 -352 -1028 -42 -121 -93 -268 -114 -327 l-37 -108
-402 0 -403 0 0 190 0 190 371 2 371 3 19 55 c46 130 119 349 119 359 0 7
-109 10 -342 9 -189 0 -387 0 -440 1 l-98 1 0 170 0 170 494 0 c461 0 494 1
501 18 8 19 135 395 135 399 0 2 -273 3 -607 2 -449 0 -620 -4 -654 -13z
m1871 -731 c50 -148 103 -301 116 -338 13 -38 24 -75 24 -83 0 -12 -39 -14
-246 -14 -206 0 -245 2 -241 14 24 62 99 281 163 474 42 129 80 230 84 225 5
-4 50 -129 100 -278z"/>
<path d="M4240 6036 c0 -239 -3 -441 -6 -450 -6 -14 25 -16 295 -16 l301 0 0
78 0 77 -192 0 -193 0 2 70 c1 39 2 88 2 110 l1 40 188 0 187 0 3 78 3 77
-190 0 c-104 0 -191 3 -193 8 -2 4 -2 42 0 85 l4 77 166 0 c92 0 177 3 190 6
21 6 22 11 22 100 l0 94 -295 0 -295 0 0 -434z"/>
<path d="M5400 6315 l0 -156 -22 21 c-43 41 -94 60 -159 60 -80 0 -134 -26
-193 -91 -62 -69 -88 -142 -88 -249 0 -208 99 -337 268 -348 67 -5 124 17 177
66 l27 26 0 -37 0 -37 85 0 85 0 0 450 0 450 -90 0 -90 0 0 -155z m-84 -251
c75 -36 108 -168 65 -257 -36 -75 -106 -103 -170 -70 -51 27 -72 61 -78 131
-8 83 11 144 54 182 39 34 77 38 129 14z"/>
<path d="M7119 6458 c0 -7 0 -209 0 -448 l0 -435 95 -3 96 -3 0 451 0 450 -95
0 c-69 0 -95 -3 -96 -12z"/>
<path d="M7873 6454 c-3 -9 -3 -79 0 -155 3 -76 2 -139 -2 -139 -5 0 -16 10
-27 21 -51 57 -179 77 -259 40 -55 -26 -109 -84 -142 -156 -26 -55 -28 -70
-28 -175 0 -103 3 -121 26 -171 78 -167 270 -222 394 -114 l40 35 9 -35 10
-35 83 0 83 0 -2 448 -3 447 -88 3 c-73 2 -88 0 -94 -14z m-45 -417 c25 -25
35 -47 44 -94 26 -140 -58 -246 -171 -213 -49 14 -69 37 -87 98 -27 93 0 196
60 234 46 28 111 18 154 -25z"/>
<path d="M5670 6230 c0 -8 60 -184 99 -290 18 -47 55 -149 83 -227 l52 -143
107 0 c93 0 107 2 112 18 3 9 53 150 112 312 59 162 110 305 112 316 5 21 1
21 -90 23 l-95 2 -25 -78 c-14 -43 -44 -143 -67 -223 -57 -199 -57 -198 -63
-180 -3 8 -36 119 -73 245 l-67 230 -98 0 c-55 0 -99 -2 -99 -5z"/>
<path d="M6565 6221 c-57 -17 -135 -56 -135 -69 0 -8 50 -112 54 -112 2 0 29
11 60 25 60 26 143 33 189 16 37 -14 67 -51 67 -81 l0 -27 -103 -6 c-125 -7
-198 -32 -249 -84 -42 -44 -58 -79 -58 -131 0 -64 18 -108 59 -145 88 -79 230
-76 328 7 l32 27 7 -36 6 -35 82 0 81 0 -3 222 c-1 123 -7 247 -13 277 -15 73
-72 135 -142 156 -67 20 -187 18 -262 -4z m229 -394 c-2 -53 -22 -85 -66 -108
-53 -27 -103 -25 -133 6 -30 29 -32 54 -5 87 23 30 115 58 180 54 22 -1 25 -5
24 -39z"/>
<path d="M8378 6225 c-95 -35 -169 -114 -204 -217 -12 -37 -15 -74 -12 -137 5
-106 37 -181 101 -237 69 -60 119 -77 222 -78 79 -1 97 2 147 27 70 35 141
111 162 175 67 206 -16 404 -196 468 -51 18 -171 17 -220 -1z m176 -164 c42
-27 66 -71 73 -136 13 -121 -44 -205 -137 -205 -94 0 -148 79 -137 202 6 71
32 118 77 140 45 23 85 23 124 -1z"/>
<path d="M4789 5343 c-6 -15 -26 -66 -44 -113 -17 -47 -64 -168 -103 -270
-164 -428 -191 -505 -184 -510 4 -3 48 -4 99 -2 l92 3 29 77 c16 42 32 85 35
95 6 15 24 17 181 17 l174 0 33 -94 33 -95 98 -3 c73 -2 98 0 98 9 0 7 -41
124 -91 260 -51 137 -125 338 -165 448 l-72 200 -101 3 -101 3 -11 -28z m168
-369 c30 -88 57 -167 60 -176 5 -17 -5 -18 -121 -18 -72 0 -126 4 -126 9 0 6
13 45 30 88 16 43 44 119 62 170 17 51 34 91 36 89 2 -2 28 -75 59 -162z"/>
<path d="M6896 5278 c-20 -51 -36 -96 -36 -100 0 -5 26 -8 58 -8 56 0 58 1
167 86 61 47 111 92 113 100 3 11 -21 14 -131 14 l-135 0 -36 -92z"/>
<path d="M7349 5341 c-39 -39 -40 -96 -3 -140 23 -27 32 -31 78 -31 71 0 106
30 106 90 0 76 -31 109 -103 110 -41 0 -53 -5 -78 -29z"/>
<path d="M5688 5094 c-27 -8 -57 -27 -72 -44 -34 -41 -40 -41 -40 0 l-1 35
-87 3 -88 3 0 -320 0 -320 86 -3 c47 -2 88 -1 90 1 2 2 4 88 4 190 0 161 3
192 19 228 24 53 64 74 141 75 67 1 68 1 77 91 5 45 3 61 -8 68 -20 12 -67 10
-121 -7z"/>
<path d="M6095 5105 c-5 -2 -35 -11 -65 -20 -60 -18 -120 -54 -120 -71 0 -6
11 -32 26 -57 l25 -46 47 21 c35 16 68 22 129 22 73 1 84 -2 107 -23 17 -16
26 -35 26 -56 l0 -32 -97 -6 c-131 -8 -193 -28 -247 -80 -111 -106 -68 -286
78 -327 85 -23 200 3 250 59 22 24 36 19 36 -15 0 -24 1 -24 86 -24 l86 0 -4
248 c-3 232 -5 249 -26 289 -43 82 -130 124 -256 122 -39 0 -75 -2 -81 -4z
m179 -419 c-15 -81 -97 -130 -176 -107 -27 9 -40 19 -44 36 -10 40 4 73 38 91
34 17 167 35 181 23 5 -3 5 -23 1 -43z"/>
<path d="M7900 5101 c-89 -20 -165 -73 -212 -149 -46 -75 -61 -214 -33 -310
65 -219 357 -293 542 -138 16 14 45 53 64 88 33 61 34 66 34 178 0 129 -12
164 -81 240 -69 76 -205 115 -314 91z m160 -188 c134 -135 18 -392 -142 -314
-55 26 -79 67 -85 146 -6 68 6 119 39 160 26 33 51 44 107 44 37 1 49 -4 81
-36z"/>
<path d="M6600 4854 c0 -145 4 -253 12 -281 33 -132 199 -195 325 -123 28 16
58 39 67 51 14 21 15 21 21 -15 l7 -36 89 0 89 0 -2 318 -3 317 -92 3 -93 3 0
-196 c0 -210 -7 -248 -51 -279 -14 -10 -43 -16 -74 -16 -44 0 -55 4 -81 31
l-29 30 -3 215 -3 214 -90 0 -89 0 0 -236z"/>
<path d="M7340 4770 c0 -348 -1 -356 -56 -399 -15 -12 -37 -21 -50 -21 -28 0
-44 -26 -44 -72 0 -60 17 -72 94 -65 127 12 210 82 235 198 7 29 11 180 11
364 l0 315 -95 0 -95 0 0 -320z"/>
<path d="M4253 4064 c-51 -18 -73 -47 -73 -98 0 -55 24 -78 112 -106 37 -12
72 -28 78 -35 19 -23 7 -49 -27 -58 -30 -9 -69 -1 -134 27 -22 10 -46 -42 -27
-59 38 -35 156 -46 213 -20 37 18 55 51 55 101 0 46 -41 88 -101 104 -70 17
-89 28 -89 50 0 34 46 45 103 26 55 -20 67 -15 67 23 0 23 -6 30 -37 39 -60
18 -100 19 -140 6z"/>
<path d="M5200 4070 c-50 -12 -80 -51 -80 -106 0 -56 16 -71 111 -104 82 -28
103 -50 76 -77 -22 -22 -94 -20 -139 3 -30 15 -32 15 -45 -2 -33 -45 0 -72 98
-81 68 -7 122 9 149 44 22 28 26 82 10 114 -13 23 -73 55 -123 64 -66 13 -89
57 -40 76 26 10 68 4 114 -15 11 -5 19 1 27 19 16 35 10 42 -50 60 -57 17 -58
17 -108 5z"/>
<path d="M8090 4069 c-49 -14 -80 -51 -80 -97 0 -53 21 -77 88 -102 109 -40
112 -41 112 -65 0 -45 -81 -54 -154 -18 -33 17 -48 5 -44 -36 4 -34 64 -54
147 -49 57 4 67 8 92 36 21 24 29 43 29 71 0 58 -29 87 -111 112 -93 28 -111
62 -43 83 12 4 43 -1 69 -10 51 -17 65 -11 65 29 0 34 -108 63 -170 46z"/>
<path d="M4773 4064 c-10 -4 -13 -50 -13 -180 l0 -174 45 0 45 0 -2 177 -3
177 -30 2 c-16 2 -36 0 -42 -2z"/>
<path d="M5688 4062 c-12 -2 -18 -13 -18 -32 0 -28 2 -29 53 -32 l52 -3 3
-142 3 -143 34 0 35 0 0 144 0 145 53 3 c50 3 52 4 52 32 l0 29 -125 2 c-69 0
-133 -1 -142 -3z"/>
<path d="M6230 3890 l0 -180 120 0 120 0 0 30 0 29 -82 3 -83 3 -3 43 -3 42
75 0 76 0 0 35 0 35 -75 0 -75 0 0 35 0 35 86 0 85 0 -3 33 -3 32 -117 3 -118
3 0 -181z"/>
<path d="M6767 4064 c-4 -4 -7 -85 -7 -181 l0 -173 40 0 39 0 3 122 3 122 42
-80 c52 -100 66 -102 111 -14 18 36 38 69 43 74 5 6 9 -35 9 -107 l0 -117 40
0 40 0 0 181 0 180 -47 -3 -48 -3 -40 -71 c-22 -39 -44 -72 -49 -73 -5 -2 -28
30 -51 71 -39 70 -42 73 -81 76 -22 2 -43 0 -47 -4z"/>
<path d="M7533 4053 c-10 -28 -124 -316 -130 -330 -4 -9 7 -13 34 -13 37 0 41
3 55 39 14 35 19 39 64 44 75 10 86 5 102 -41 13 -40 16 -42 54 -42 34 0 39 3
34 18 -3 9 -34 90 -69 179 l-62 163 -38 0 c-27 0 -40 -5 -44 -17z m73 -191
c-11 -11 -66 -10 -66 1 0 5 8 35 17 65 l17 54 19 -57 c11 -31 16 -59 13 -63z"/>
</g>
</svg>
